<svg width="20" height="20" viewBox="0 0 20 20" fill="none" xmlns="http://www.w3.org/2000/svg">
<mask id="mask0_26_4" style="mask-type:alpha" maskUnits="userSpaceOnUse" x="0" y="0" width="20" height="20">
<rect width="20" height="20" fill="#D9D9D9"/>
</mask>
<g mask="url(#mask0_26_4)">
<path d="M4.42304 17.9167C4.0021 17.9167 3.64579 17.7709 3.35413 17.4792C3.06246 17.1876 2.91663 16.8313 2.91663 16.4103V5.25653C2.91663 4.83559 3.06246 4.47928 3.35413 4.18762C3.64579 3.89595 4.0021 3.75012 4.42304 3.75012H5.5769V1.9873H6.85892V3.75012H13.173V1.9873H14.423V3.75012H15.5768C15.9978 3.75012 16.3541 3.89595 16.6458 4.18762C16.9374 4.47928 17.0833 4.83559 17.0833 5.25653V16.4103C17.0833 16.8313 16.9374 17.1876 16.6458 17.4792C16.3541 17.7709 15.9978 17.9167 15.5768 17.9167H4.42304ZM4.42304 16.6668H15.5768C15.6409 16.6668 15.6997 16.6401 15.7531 16.5866C15.8066 16.5332 15.8333 16.4744 15.8333 16.4103V8.58987H4.16661V16.4103C4.16661 16.4744 4.19331 16.5332 4.24673 16.5866C4.30016 16.6401 4.35893 16.6668 4.42304 16.6668ZM4.16661 7.33989H15.8333V5.25653C15.8333 5.19242 15.8066 5.13365 15.7531 5.08022C15.6997 5.02681 15.6409 5.0001 15.5768 5.0001H4.42304C4.35893 5.0001 4.30016 5.02681 4.24673 5.08022C4.19331 5.13365 4.16661 5.19242 4.16661 5.25653V7.33989ZM9.99994 11.7309C9.79588 11.7309 9.62201 11.659 9.47831 11.5153C9.33462 11.3716 9.26277 11.1978 9.26277 10.9937C9.26277 10.7896 9.33462 10.6158 9.47831 10.4721C9.62201 10.3284 9.79588 10.2565 9.99994 10.2565C10.204 10.2565 10.3779 10.3284 10.5216 10.4721C10.6653 10.6158 10.7371 10.7896 10.7371 10.9937C10.7371 11.1978 10.6653 11.3716 10.5216 11.5153C10.3779 11.659 10.204 11.7309 9.99994 11.7309ZM6.66661 11.7309C6.46255 11.7309 6.28867 11.659 6.14498 11.5153C6.00129 11.3716 5.92944 11.1978 5.92944 10.9937C5.92944 10.7896 6.00129 10.6158 6.14498 10.4721C6.28867 10.3284 6.46255 10.2565 6.66661 10.2565C6.87066 10.2565 7.04454 10.3284 7.18823 10.4721C7.33192 10.6158 7.40377 10.7896 7.40377 10.9937C7.40377 11.1978 7.33192 11.3716 7.18823 11.5153C7.04454 11.659 6.87066 11.7309 6.66661 11.7309ZM13.3333 11.7309C13.1292 11.7309 12.9553 11.659 12.8116 11.5153C12.668 11.3716 12.5961 11.1978 12.5961 10.9937C12.5961 10.7896 12.668 10.6158 12.8116 10.4721C12.9553 10.3284 13.1292 10.2565 13.3333 10.2565C13.5373 10.2565 13.7112 10.3284 13.8549 10.4721C13.9986 10.6158 14.0704 10.7896 14.0704 10.9937C14.0704 11.1978 13.9986 11.3716 13.8549 11.5153C13.7112 11.659 13.5373 11.7309 13.3333 11.7309ZM9.99994 15.0001C9.79588 15.0001 9.62201 14.9282 9.47831 14.7846C9.33462 14.6409 9.26277 14.467 9.26277 14.2629C9.26277 14.0589 9.33462 13.885 9.47831 13.7413C9.62201 13.5976 9.79588 13.5257 9.99994 13.5257C10.204 13.5257 10.3779 13.5976 10.5216 13.7413C10.6653 13.885 10.7371 14.0589 10.7371 14.2629C10.7371 14.467 10.6653 14.6409 10.5216 14.7846C10.3779 14.9282 10.204 15.0001 9.99994 15.0001ZM6.66661 15.0001C6.46255 15.0001 6.28867 14.9282 6.14498 14.7846C6.00129 14.6409 5.92944 14.467 5.92944 14.2629C5.92944 14.0589 6.00129 13.885 6.14498 13.7413C6.28867 13.5976 6.46255 13.5257 6.66661 13.5257C6.87066 13.5257 7.04454 13.5976 7.18823 13.7413C7.33192 13.885 7.40377 14.0589 7.40377 14.2629C7.40377 14.467 7.33192 14.6409 7.18823 14.7846C7.04454 14.9282 6.87066 15.0001 6.66661 15.0001ZM13.3333 15.0001C13.1292 15.0001 12.9553 14.9282 12.8116 14.7846C12.668 14.6409 12.5961 14.467 12.5961 14.2629C12.5961 14.0589 12.668 13.885 12.8116 13.7413C12.9553 13.5976 13.1292 13.5257 13.3333 13.5257C13.5373 13.5257 13.7112 13.5976 13.8549 13.7413C13.9986 13.885 14.0704 14.0589 14.0704 14.2629C14.0704 14.467 13.9986 14.6409 13.8549 14.7846C13.7112 14.9282 13.5373 15.0001 13.3333 15.0001Z" fill="#F26800"/>
</g>
</svg>
