<svg width="20" height="20" viewBox="0 0 20 20" fill="none" xmlns="http://www.w3.org/2000/svg">
<mask id="mask0_26_7" style="mask-type:alpha" maskUnits="userSpaceOnUse" x="0" y="0" width="20" height="20">
<rect width="20" height="20" fill="#D9D9D9"/>
</mask>
<g mask="url(#mask0_26_7)">
<path d="M1.66663 20V17.5001H18.3333V20H1.66663ZM4.99996 13.6779H6.0304L12.9471 6.77405L12.4231 6.24198L11.9038 5.73078L4.99996 12.6475V13.6779ZM3.74998 14.9279V12.1154L13.0913 2.7869C13.2121 2.66618 13.3491 2.57484 13.5024 2.51288C13.6557 2.45091 13.8152 2.41992 13.9809 2.41992C14.1466 2.41992 14.3071 2.45091 14.4625 2.51288C14.6178 2.57484 14.7601 2.67046 14.8894 2.79973L15.891 3.81415C16.0202 3.93487 16.1137 4.07312 16.1714 4.2289C16.2291 4.38469 16.2579 4.54567 16.2579 4.71184C16.2579 4.86763 16.2287 5.0226 16.1702 5.17676C16.1117 5.33091 16.0186 5.47178 15.891 5.59936L6.56244 14.9279H3.74998ZM12.9471 6.77405L12.4231 6.24198L11.9038 5.73078L12.9471 6.77405Z" fill="#F26800"/>
</g>
</svg>
